<svg xmlns="http://www.w3.org/2000/svg" width="1600" height="900" viewBox="0 0 1600 900" role="img" aria-labelledby="title desc">
  <title id="title">Colorbond patio colour palette for an Australian outdoor area</title>
  <desc id="desc">AI-generated vector illustration showing a modern patio with a Colorbond-style roof, neutral house exterior, timber deck, colour swatches and Australian garden planting.</desc>
  <defs>
    <linearGradient id="sky" x1="0" x2="0" y1="0" y2="1">
      <stop offset="0" stop-color="#d9eef7"/>
      <stop offset="0.7" stop-color="#fbfaf1"/>
      <stop offset="1" stop-color="#eef7e4"/>
    </linearGradient>
    <linearGradient id="deck" x1="0" x2="1" y1="0" y2="1">
      <stop offset="0" stop-color="#ddc89d"/>
      <stop offset="1" stop-color="#b98754"/>
    </linearGradient>
    <linearGradient id="roof" x1="0" x2="1" y1="0" y2="1">
      <stop offset="0" stop-color="#53615f"/>
      <stop offset="1" stop-color="#273538"/>
    </linearGradient>
    <filter id="shadow" x="-20%" y="-20%" width="140%" height="140%">
      <feDropShadow dx="0" dy="16" stdDeviation="18" flood-color="#102c24" flood-opacity="0.24"/>
    </filter>
  </defs>
  <rect width="1600" height="900" fill="url(#sky)"/>
  <circle cx="1285" cy="170" r="78" fill="#ffd57d" opacity="0.9"/>
  <path d="M0 600C230 540 320 650 545 602C830 540 925 606 1115 570C1300 535 1445 545 1600 590V900H0Z" fill="#6faa68"/>
  <path d="M0 675C240 620 395 715 610 665C860 607 1080 704 1300 640C1435 602 1535 630 1600 650V900H0Z" fill="#3f7c50" opacity="0.9"/>

  <g filter="url(#shadow)">
    <polygon points="145,380 735,315 1135,390 1135,665 145,665" fill="#efe8da"/>
    <polygon points="735,315 1135,390 1135,665 742,665" fill="#ddd4c4"/>
    <polygon points="118,360 730,255 1178,370 1138,420 730,330 145,410" fill="#7a776a"/>
    <polygon points="730,255 1178,370 1138,420 730,330" fill="#686e67"/>
    <rect x="250" y="438" width="250" height="135" fill="#86bdd0"/>
    <rect x="250" y="438" width="250" height="14" fill="#63594f"/>
    <rect x="370" y="438" width="8" height="135" fill="#63594f"/>
    <rect x="720" y="442" width="260" height="145" fill="#8cc3d5"/>
    <rect x="720" y="442" width="260" height="14" fill="#63594f"/>
  </g>

  <polygon points="230,630 1240,630 1515,880 75,880" fill="url(#deck)"/>
  <g stroke="#987849" stroke-width="3" opacity="0.64">
    <path d="M210 660H1268M188 692H1308M162 724H1348M137 756H1388M112 788H1428M88 820H1468M80 852H1498"/>
    <path d="M330 630 165 880M470 630 310 880M610 630 455 880M750 630 600 880M890 630 745 880M1030 630 890 880M1170 630 1035 880"/>
  </g>

  <g filter="url(#shadow)">
    <polygon points="515,342 1232,410 1400,520 680,462" fill="url(#roof)"/>
    <polygon points="515,342 680,462 305,532 210,470" fill="#6a7770"/>
    <polygon points="680,462 1400,520 1085,622 305,532" fill="#77847b"/>
    <g stroke="#2d4041" stroke-width="8" stroke-linecap="round" opacity="0.75">
      <path d="M460 525 835 468"/>
      <path d="M605 526 980 474"/>
      <path d="M750 526 1125 482"/>
      <path d="M895 527 1270 490"/>
    </g>
    <g fill="#4b5450">
      <rect x="320" y="525" width="28" height="315" rx="2"/>
      <rect x="675" y="462" width="28" height="365" rx="2"/>
      <rect x="1080" y="622" width="28" height="230" rx="2"/>
      <rect x="1358" y="520" width="28" height="350" rx="2"/>
    </g>
  </g>

  <g filter="url(#shadow)">
    <rect x="116" y="120" width="390" height="165" rx="28" fill="#ffffff" opacity="0.94"/>
    <text x="146" y="162" fill="#1f332f" font-family="Arial, Helvetica, sans-serif" font-size="30" font-weight="700">Color palette planning</text>
    <text x="146" y="200" fill="#5f6d67" font-family="Arial, Helvetica, sans-serif" font-size="20">Roof • posts • gutters • deck</text>
    <g transform="translate(146 224)">
      <rect width="58" height="42" rx="8" fill="#313a3d"/>
      <rect x="72" width="58" height="42" rx="8" fill="#7c7f76"/>
      <rect x="144" width="58" height="42" rx="8" fill="#d8d0bc"/>
      <rect x="216" width="58" height="42" rx="8" fill="#9b6a43"/>
      <rect x="288" width="58" height="42" rx="8" fill="#567c5f"/>
    </g>
  </g>

  <g filter="url(#shadow)">
    <polygon points="620,690 930,690 990,782 560,782" fill="#e8dfc6"/>
    <rect x="638" y="665" width="270" height="34" rx="5" fill="#f1ead7"/>
    <g fill="#545b55">
      <rect x="600" y="770" width="24" height="70"/>
      <rect x="935" y="770" width="24" height="70"/>
      <rect x="708" y="724" width="18" height="95"/>
      <rect x="838" y="724" width="18" height="80"/>
    </g>
    <rect x="1195" y="710" width="110" height="84" fill="#a2693e"/>
    <g fill="none" stroke="#4b9159" stroke-width="6" stroke-linecap="round">
      <path d="M1215 712q-16-45-48-24M1238 710q-2-58-32-72M1265 712q22-46 60-23M1268 714q8-38 42-55"/>
    </g>
  </g>
</svg>
